<mxfile host="Electron" modified="2023-07-31T17:06:20.515Z" agent="Mozilla/5.0 (Windows NT 10.0; Win64; x64) AppleWebKit/537.36 (KHTML, like Gecko) draw.io/21.3.7 Chrome/112.0.5615.204 Electron/24.5.0 Safari/537.36" etag="UGzaip9E9Y8-kTW9kxHZ" version="21.3.7" type="device">
  <diagram id="R2lEEEUBdFMjLlhIrx00" name="Page-1">
    <mxGraphModel dx="1234" dy="726" grid="1" gridSize="10" guides="1" tooltips="1" connect="1" arrows="1" fold="1" page="1" pageScale="1" pageWidth="850" pageHeight="1100" math="0" shadow="0" extFonts="Permanent Marker^https://fonts.googleapis.com/css?family=Permanent+Marker">
      <root>
        <mxCell id="0" />
        <mxCell id="1" parent="0" />
        <mxCell id="IfihVc9j7GQSFvolxZwZ-2" value="&lt;b&gt;Ward &lt;/b&gt;" style="rounded=1;arcSize=10;whiteSpace=wrap;html=1;align=center;" parent="1" vertex="1">
          <mxGeometry x="155" y="190" width="90" height="30" as="geometry" />
        </mxCell>
        <mxCell id="IfihVc9j7GQSFvolxZwZ-3" value="&lt;b&gt;W_ID&lt;/b&gt;" style="ellipse;whiteSpace=wrap;html=1;align=center;fontStyle=4;" parent="1" vertex="1">
          <mxGeometry x="160" y="100" width="80" height="40" as="geometry" />
        </mxCell>
        <mxCell id="IfihVc9j7GQSFvolxZwZ-4" value="&lt;b&gt;Name &lt;/b&gt;" style="ellipse;whiteSpace=wrap;html=1;align=center;" parent="1" vertex="1">
          <mxGeometry x="100" y="140" width="70" height="40" as="geometry" />
        </mxCell>
        <mxCell id="IfihVc9j7GQSFvolxZwZ-5" value="&lt;b&gt;number_&lt;br&gt;of_patients&lt;/b&gt;" style="ellipse;whiteSpace=wrap;html=1;align=center;" parent="1" vertex="1">
          <mxGeometry x="147.5" y="250" width="105" height="60" as="geometry" />
        </mxCell>
        <mxCell id="IfihVc9j7GQSFvolxZwZ-8" value="" style="endArrow=none;html=1;rounded=0;entryX=0.5;entryY=1;entryDx=0;entryDy=0;exitX=0.5;exitY=0;exitDx=0;exitDy=0;" parent="1" source="IfihVc9j7GQSFvolxZwZ-5" target="IfihVc9j7GQSFvolxZwZ-2" edge="1">
          <mxGeometry relative="1" as="geometry">
            <mxPoint x="70" y="250" as="sourcePoint" />
            <mxPoint x="230" y="250" as="targetPoint" />
          </mxGeometry>
        </mxCell>
        <mxCell id="IfihVc9j7GQSFvolxZwZ-9" value="" style="endArrow=none;html=1;rounded=0;entryX=0.5;entryY=1;entryDx=0;entryDy=0;exitX=0.5;exitY=0;exitDx=0;exitDy=0;" parent="1" source="IfihVc9j7GQSFvolxZwZ-2" target="IfihVc9j7GQSFvolxZwZ-3" edge="1">
          <mxGeometry relative="1" as="geometry">
            <mxPoint x="200" y="180" as="sourcePoint" />
            <mxPoint x="200" y="160" as="targetPoint" />
          </mxGeometry>
        </mxCell>
        <mxCell id="IfihVc9j7GQSFvolxZwZ-10" value="" style="endArrow=none;html=1;rounded=0;exitX=1;exitY=1;exitDx=0;exitDy=0;entryX=0.25;entryY=0;entryDx=0;entryDy=0;" parent="1" source="IfihVc9j7GQSFvolxZwZ-4" target="IfihVc9j7GQSFvolxZwZ-2" edge="1">
          <mxGeometry relative="1" as="geometry">
            <mxPoint x="90" y="210" as="sourcePoint" />
            <mxPoint x="250" y="210" as="targetPoint" />
          </mxGeometry>
        </mxCell>
        <mxCell id="IfihVc9j7GQSFvolxZwZ-12" value="&lt;b&gt;Doctor &lt;/b&gt;" style="rounded=1;arcSize=10;whiteSpace=wrap;html=1;align=center;" parent="1" vertex="1">
          <mxGeometry x="490" y="190" width="90" height="30" as="geometry" />
        </mxCell>
        <mxCell id="IfihVc9j7GQSFvolxZwZ-13" value="&lt;b&gt;assigned&lt;/b&gt;" style="shape=rhombus;perimeter=rhombusPerimeter;whiteSpace=wrap;html=1;align=center;" parent="1" vertex="1">
          <mxGeometry x="320" y="180" width="90" height="50" as="geometry" />
        </mxCell>
        <mxCell id="IfihVc9j7GQSFvolxZwZ-14" value="" style="endArrow=none;html=1;rounded=0;exitX=1;exitY=0.5;exitDx=0;exitDy=0;entryX=0;entryY=0.5;entryDx=0;entryDy=0;" parent="1" source="IfihVc9j7GQSFvolxZwZ-2" target="IfihVc9j7GQSFvolxZwZ-13" edge="1">
          <mxGeometry relative="1" as="geometry">
            <mxPoint x="260" y="220" as="sourcePoint" />
            <mxPoint x="420" y="220" as="targetPoint" />
          </mxGeometry>
        </mxCell>
        <mxCell id="IfihVc9j7GQSFvolxZwZ-15" value="" style="endArrow=none;html=1;rounded=0;exitX=1;exitY=0.5;exitDx=0;exitDy=0;entryX=0;entryY=0.5;entryDx=0;entryDy=0;" parent="1" source="IfihVc9j7GQSFvolxZwZ-13" target="IfihVc9j7GQSFvolxZwZ-12" edge="1">
          <mxGeometry relative="1" as="geometry">
            <mxPoint x="425" y="204.57" as="sourcePoint" />
            <mxPoint x="460" y="205" as="targetPoint" />
          </mxGeometry>
        </mxCell>
        <mxCell id="IfihVc9j7GQSFvolxZwZ-16" value="&lt;b&gt;1&lt;/b&gt;" style="text;strokeColor=none;fillColor=none;spacingLeft=4;spacingRight=4;overflow=hidden;rotatable=0;points=[[0,0.5],[1,0.5]];portConstraint=eastwest;fontSize=12;whiteSpace=wrap;html=1;" parent="1" vertex="1">
          <mxGeometry x="252.5" y="180" width="40" height="30" as="geometry" />
        </mxCell>
        <mxCell id="IfihVc9j7GQSFvolxZwZ-17" value="&lt;b&gt;M&lt;/b&gt;" style="text;strokeColor=none;fillColor=none;spacingLeft=4;spacingRight=4;overflow=hidden;rotatable=0;points=[[0,0.5],[1,0.5]];portConstraint=eastwest;fontSize=12;whiteSpace=wrap;html=1;" parent="1" vertex="1">
          <mxGeometry x="460" y="180" width="40" height="30" as="geometry" />
        </mxCell>
        <mxCell id="IfihVc9j7GQSFvolxZwZ-18" value="&lt;b&gt;Patient &lt;/b&gt;" style="rounded=1;arcSize=10;whiteSpace=wrap;html=1;align=center;" parent="1" vertex="1">
          <mxGeometry x="610" y="370" width="90" height="30" as="geometry" />
        </mxCell>
        <mxCell id="IfihVc9j7GQSFvolxZwZ-19" value="&lt;b&gt;Admit&lt;/b&gt;" style="shape=rhombus;perimeter=rhombusPerimeter;whiteSpace=wrap;html=1;align=center;" parent="1" vertex="1">
          <mxGeometry x="440" y="360" width="90" height="50" as="geometry" />
        </mxCell>
        <mxCell id="IfihVc9j7GQSFvolxZwZ-20" value="" style="endArrow=none;html=1;rounded=0;exitX=1;exitY=1;exitDx=0;exitDy=0;entryX=0;entryY=0;entryDx=0;entryDy=0;" parent="1" source="IfihVc9j7GQSFvolxZwZ-2" target="IfihVc9j7GQSFvolxZwZ-19" edge="1">
          <mxGeometry relative="1" as="geometry">
            <mxPoint x="340" y="360" as="sourcePoint" />
            <mxPoint x="565" y="410" as="targetPoint" />
          </mxGeometry>
        </mxCell>
        <mxCell id="IfihVc9j7GQSFvolxZwZ-21" value="" style="endArrow=none;html=1;rounded=0;exitX=1;exitY=0.5;exitDx=0;exitDy=0;entryX=0;entryY=0.5;entryDx=0;entryDy=0;" parent="1" source="IfihVc9j7GQSFvolxZwZ-19" target="IfihVc9j7GQSFvolxZwZ-18" edge="1">
          <mxGeometry relative="1" as="geometry">
            <mxPoint x="551" y="360" as="sourcePoint" />
            <mxPoint x="649" y="443" as="targetPoint" />
          </mxGeometry>
        </mxCell>
        <mxCell id="IfihVc9j7GQSFvolxZwZ-22" value="&lt;b&gt;admission&lt;br&gt;number &lt;/b&gt;" style="ellipse;whiteSpace=wrap;html=1;align=center;fontStyle=4;" parent="1" vertex="1">
          <mxGeometry x="610" y="460" width="90" height="50" as="geometry" />
        </mxCell>
        <mxCell id="IfihVc9j7GQSFvolxZwZ-23" value="&lt;b&gt;Name &lt;/b&gt;" style="ellipse;whiteSpace=wrap;html=1;align=center;" parent="1" vertex="1">
          <mxGeometry x="530" y="460" width="70" height="40" as="geometry" />
        </mxCell>
        <mxCell id="IfihVc9j7GQSFvolxZwZ-24" value="&lt;b&gt;address &lt;/b&gt;" style="ellipse;whiteSpace=wrap;html=1;align=center;" parent="1" vertex="1">
          <mxGeometry x="710" y="460" width="70" height="40" as="geometry" />
        </mxCell>
        <mxCell id="IfihVc9j7GQSFvolxZwZ-27" value="&lt;b&gt;TP_No&lt;/b&gt;" style="ellipse;shape=doubleEllipse;margin=3;whiteSpace=wrap;html=1;align=center;" parent="1" vertex="1">
          <mxGeometry x="530" y="410" width="60" height="40" as="geometry" />
        </mxCell>
        <mxCell id="IfihVc9j7GQSFvolxZwZ-28" value="&lt;b&gt;date_of_&lt;br&gt;admission&lt;/b&gt;" style="ellipse;whiteSpace=wrap;html=1;align=center;" parent="1" vertex="1">
          <mxGeometry x="720" y="410" width="80" height="40" as="geometry" />
        </mxCell>
        <mxCell id="IfihVc9j7GQSFvolxZwZ-29" value="" style="endArrow=none;html=1;rounded=0;entryX=0.25;entryY=1;entryDx=0;entryDy=0;" parent="1" source="IfihVc9j7GQSFvolxZwZ-27" target="IfihVc9j7GQSFvolxZwZ-18" edge="1">
          <mxGeometry relative="1" as="geometry">
            <mxPoint x="620" y="420" as="sourcePoint" />
            <mxPoint x="780" y="420" as="targetPoint" />
          </mxGeometry>
        </mxCell>
        <mxCell id="IfihVc9j7GQSFvolxZwZ-30" value="" style="endArrow=none;html=1;rounded=0;entryX=0.354;entryY=1.001;entryDx=0;entryDy=0;exitX=1;exitY=0;exitDx=0;exitDy=0;entryPerimeter=0;" parent="1" source="IfihVc9j7GQSFvolxZwZ-23" target="IfihVc9j7GQSFvolxZwZ-18" edge="1">
          <mxGeometry relative="1" as="geometry">
            <mxPoint x="596" y="429" as="sourcePoint" />
            <mxPoint x="643" y="410" as="targetPoint" />
          </mxGeometry>
        </mxCell>
        <mxCell id="IfihVc9j7GQSFvolxZwZ-31" value="" style="endArrow=none;html=1;rounded=0;entryX=0.5;entryY=1;entryDx=0;entryDy=0;exitX=0.5;exitY=0;exitDx=0;exitDy=0;" parent="1" source="IfihVc9j7GQSFvolxZwZ-22" target="IfihVc9j7GQSFvolxZwZ-18" edge="1">
          <mxGeometry relative="1" as="geometry">
            <mxPoint x="600" y="476" as="sourcePoint" />
            <mxPoint x="652" y="410" as="targetPoint" />
          </mxGeometry>
        </mxCell>
        <mxCell id="IfihVc9j7GQSFvolxZwZ-32" value="" style="endArrow=none;html=1;rounded=0;entryX=0.75;entryY=1;entryDx=0;entryDy=0;exitX=0;exitY=0;exitDx=0;exitDy=0;" parent="1" source="IfihVc9j7GQSFvolxZwZ-24" target="IfihVc9j7GQSFvolxZwZ-18" edge="1">
          <mxGeometry relative="1" as="geometry">
            <mxPoint x="665" y="470" as="sourcePoint" />
            <mxPoint x="665" y="410" as="targetPoint" />
          </mxGeometry>
        </mxCell>
        <mxCell id="IfihVc9j7GQSFvolxZwZ-33" value="" style="endArrow=none;html=1;rounded=0;entryX=0.894;entryY=0.996;entryDx=0;entryDy=0;exitX=0.019;exitY=0.374;exitDx=0;exitDy=0;exitPerimeter=0;entryPerimeter=0;" parent="1" source="IfihVc9j7GQSFvolxZwZ-28" target="IfihVc9j7GQSFvolxZwZ-18" edge="1">
          <mxGeometry relative="1" as="geometry">
            <mxPoint x="752" y="460" as="sourcePoint" />
            <mxPoint x="700" y="394" as="targetPoint" />
          </mxGeometry>
        </mxCell>
        <mxCell id="IfihVc9j7GQSFvolxZwZ-35" value="&lt;b&gt;Treatment &lt;/b&gt;" style="rounded=1;arcSize=10;whiteSpace=wrap;html=1;align=center;" parent="1" vertex="1">
          <mxGeometry x="1020" y="370" width="90" height="30" as="geometry" />
        </mxCell>
        <mxCell id="IfihVc9j7GQSFvolxZwZ-36" value="&lt;b&gt;Treat&lt;/b&gt;" style="shape=rhombus;perimeter=rhombusPerimeter;whiteSpace=wrap;html=1;align=center;" parent="1" vertex="1">
          <mxGeometry x="810" y="360" width="90" height="50" as="geometry" />
        </mxCell>
        <mxCell id="IfihVc9j7GQSFvolxZwZ-38" value="" style="endArrow=none;html=1;rounded=0;exitX=1;exitY=0.5;exitDx=0;exitDy=0;" parent="1" source="IfihVc9j7GQSFvolxZwZ-18" target="IfihVc9j7GQSFvolxZwZ-36" edge="1">
          <mxGeometry relative="1" as="geometry">
            <mxPoint x="730" y="380" as="sourcePoint" />
            <mxPoint x="890" y="380" as="targetPoint" />
          </mxGeometry>
        </mxCell>
        <mxCell id="IfihVc9j7GQSFvolxZwZ-39" value="" style="endArrow=none;html=1;rounded=0;exitX=1;exitY=0.5;exitDx=0;exitDy=0;entryX=0;entryY=0.5;entryDx=0;entryDy=0;" parent="1" source="IfihVc9j7GQSFvolxZwZ-36" target="IfihVc9j7GQSFvolxZwZ-35" edge="1">
          <mxGeometry relative="1" as="geometry">
            <mxPoint x="910" y="384.57" as="sourcePoint" />
            <mxPoint x="1020" y="384.57" as="targetPoint" />
          </mxGeometry>
        </mxCell>
        <mxCell id="IfihVc9j7GQSFvolxZwZ-40" value="&lt;b&gt;T_ID&lt;/b&gt;" style="ellipse;whiteSpace=wrap;html=1;align=center;fontStyle=4;" parent="1" vertex="1">
          <mxGeometry x="970" y="290" width="80" height="40" as="geometry" />
        </mxCell>
        <mxCell id="IfihVc9j7GQSFvolxZwZ-42" value="&lt;b&gt;description &lt;/b&gt;" style="ellipse;whiteSpace=wrap;html=1;align=center;" parent="1" vertex="1">
          <mxGeometry x="1070" y="290" width="90" height="40" as="geometry" />
        </mxCell>
        <mxCell id="IfihVc9j7GQSFvolxZwZ-44" value="" style="endArrow=none;html=1;rounded=0;exitX=0.5;exitY=1;exitDx=0;exitDy=0;entryX=0.5;entryY=0;entryDx=0;entryDy=0;" parent="1" source="IfihVc9j7GQSFvolxZwZ-40" target="IfihVc9j7GQSFvolxZwZ-35" edge="1">
          <mxGeometry relative="1" as="geometry">
            <mxPoint x="990" y="360" as="sourcePoint" />
            <mxPoint x="1150" y="360" as="targetPoint" />
          </mxGeometry>
        </mxCell>
        <mxCell id="IfihVc9j7GQSFvolxZwZ-45" value="" style="endArrow=none;html=1;rounded=0;exitX=0.5;exitY=1;exitDx=0;exitDy=0;entryX=0.5;entryY=0;entryDx=0;entryDy=0;" parent="1" source="IfihVc9j7GQSFvolxZwZ-42" target="IfihVc9j7GQSFvolxZwZ-35" edge="1">
          <mxGeometry relative="1" as="geometry">
            <mxPoint x="1020" y="340" as="sourcePoint" />
            <mxPoint x="1075" y="380" as="targetPoint" />
          </mxGeometry>
        </mxCell>
        <mxCell id="IfihVc9j7GQSFvolxZwZ-62" value="&lt;b&gt;Name &lt;/b&gt;" style="ellipse;whiteSpace=wrap;html=1;align=center;" parent="1" vertex="1">
          <mxGeometry x="440" y="130" width="70" height="40" as="geometry" />
        </mxCell>
        <mxCell id="IfihVc9j7GQSFvolxZwZ-64" value="&lt;b&gt;D_ID&lt;/b&gt;" style="ellipse;whiteSpace=wrap;html=1;align=center;fontStyle=4;" parent="1" vertex="1">
          <mxGeometry x="500" y="90" width="80" height="40" as="geometry" />
        </mxCell>
        <mxCell id="IfihVc9j7GQSFvolxZwZ-65" value="&lt;b&gt; Specialization&lt;/b&gt;" style="ellipse;whiteSpace=wrap;html=1;align=center;" parent="1" vertex="1">
          <mxGeometry x="560" y="130" width="90" height="50" as="geometry" />
        </mxCell>
        <mxCell id="IfihVc9j7GQSFvolxZwZ-66" value="&lt;b&gt;TelephoneNo&lt;/b&gt;" style="ellipse;shape=doubleEllipse;margin=3;whiteSpace=wrap;html=1;align=center;" parent="1" vertex="1">
          <mxGeometry x="610" y="178" width="90" height="55" as="geometry" />
        </mxCell>
        <mxCell id="IfihVc9j7GQSFvolxZwZ-67" value="" style="endArrow=none;html=1;rounded=0;exitX=0.729;exitY=0.947;exitDx=0;exitDy=0;exitPerimeter=0;entryX=0.25;entryY=0;entryDx=0;entryDy=0;" parent="1" source="IfihVc9j7GQSFvolxZwZ-62" target="IfihVc9j7GQSFvolxZwZ-12" edge="1">
          <mxGeometry relative="1" as="geometry">
            <mxPoint x="510" y="180" as="sourcePoint" />
            <mxPoint x="670" y="180" as="targetPoint" />
          </mxGeometry>
        </mxCell>
        <mxCell id="IfihVc9j7GQSFvolxZwZ-69" value="" style="endArrow=none;html=1;rounded=0;exitX=0.5;exitY=0;exitDx=0;exitDy=0;entryX=0.459;entryY=0.999;entryDx=0;entryDy=0;entryPerimeter=0;" parent="1" source="IfihVc9j7GQSFvolxZwZ-12" target="IfihVc9j7GQSFvolxZwZ-64" edge="1">
          <mxGeometry relative="1" as="geometry">
            <mxPoint x="520" y="170" as="sourcePoint" />
            <mxPoint x="680" y="170" as="targetPoint" />
          </mxGeometry>
        </mxCell>
        <mxCell id="IfihVc9j7GQSFvolxZwZ-70" value="" style="endArrow=none;html=1;rounded=0;exitX=0.75;exitY=0;exitDx=0;exitDy=0;entryX=0.259;entryY=0.937;entryDx=0;entryDy=0;entryPerimeter=0;" parent="1" source="IfihVc9j7GQSFvolxZwZ-12" target="IfihVc9j7GQSFvolxZwZ-65" edge="1">
          <mxGeometry relative="1" as="geometry">
            <mxPoint x="560" y="170" as="sourcePoint" />
            <mxPoint x="720" y="170" as="targetPoint" />
          </mxGeometry>
        </mxCell>
        <mxCell id="IfihVc9j7GQSFvolxZwZ-71" value="" style="endArrow=none;html=1;rounded=0;exitX=1;exitY=0.5;exitDx=0;exitDy=0;entryX=0;entryY=0.5;entryDx=0;entryDy=0;" parent="1" source="IfihVc9j7GQSFvolxZwZ-12" target="IfihVc9j7GQSFvolxZwZ-66" edge="1">
          <mxGeometry relative="1" as="geometry">
            <mxPoint x="600" y="200" as="sourcePoint" />
            <mxPoint x="760" y="200" as="targetPoint" />
          </mxGeometry>
        </mxCell>
        <mxCell id="IfihVc9j7GQSFvolxZwZ-73" value="&lt;b&gt; Hospital ID_&lt;span style=&quot;border-color: var(--border-color);&quot;&gt;D_ID&lt;/span&gt;&lt;/b&gt;" style="ellipse;whiteSpace=wrap;html=1;align=center;fontStyle=4;" parent="1" vertex="1">
          <mxGeometry x="312.5" y="85" width="105" height="50" as="geometry" />
        </mxCell>
        <mxCell id="IfihVc9j7GQSFvolxZwZ-74" value="" style="endArrow=none;html=1;rounded=0;entryX=0.5;entryY=1;entryDx=0;entryDy=0;exitX=0.5;exitY=0;exitDx=0;exitDy=0;" parent="1" source="IfihVc9j7GQSFvolxZwZ-13" target="IfihVc9j7GQSFvolxZwZ-73" edge="1">
          <mxGeometry relative="1" as="geometry">
            <mxPoint x="310" y="210" as="sourcePoint" />
            <mxPoint x="470" y="210" as="targetPoint" />
          </mxGeometry>
        </mxCell>
        <mxCell id="IfihVc9j7GQSFvolxZwZ-75" value="&lt;b style=&quot;border-color: var(--border-color);&quot;&gt;assigned&lt;/b&gt;" style="shape=rhombus;perimeter=rhombusPerimeter;whiteSpace=wrap;html=1;align=center;" parent="1" vertex="1">
          <mxGeometry x="610" y="280" width="90" height="50" as="geometry" />
        </mxCell>
        <mxCell id="IfihVc9j7GQSFvolxZwZ-76" value="" style="endArrow=none;html=1;rounded=0;exitX=0.5;exitY=1;exitDx=0;exitDy=0;entryX=0;entryY=0.5;entryDx=0;entryDy=0;" parent="1" source="IfihVc9j7GQSFvolxZwZ-12" target="IfihVc9j7GQSFvolxZwZ-75" edge="1">
          <mxGeometry relative="1" as="geometry">
            <mxPoint x="650" y="290" as="sourcePoint" />
            <mxPoint x="540" y="290" as="targetPoint" />
            <Array as="points">
              <mxPoint x="535" y="305" />
            </Array>
          </mxGeometry>
        </mxCell>
        <mxCell id="IfihVc9j7GQSFvolxZwZ-77" value="" style="endArrow=none;html=1;rounded=0;exitX=0.5;exitY=1;exitDx=0;exitDy=0;entryX=0.5;entryY=0;entryDx=0;entryDy=0;" parent="1" source="IfihVc9j7GQSFvolxZwZ-75" target="IfihVc9j7GQSFvolxZwZ-18" edge="1">
          <mxGeometry relative="1" as="geometry">
            <mxPoint x="730" y="290" as="sourcePoint" />
            <mxPoint x="890" y="290" as="targetPoint" />
          </mxGeometry>
        </mxCell>
        <mxCell id="IfihVc9j7GQSFvolxZwZ-78" value="&lt;b&gt;1&lt;/b&gt;" style="text;strokeColor=none;fillColor=none;spacingLeft=4;spacingRight=4;overflow=hidden;rotatable=0;points=[[0,0.5],[1,0.5]];portConstraint=eastwest;fontSize=12;whiteSpace=wrap;html=1;" parent="1" vertex="1">
          <mxGeometry x="515" y="220" width="40" height="30" as="geometry" />
        </mxCell>
        <mxCell id="IfihVc9j7GQSFvolxZwZ-81" value="&lt;b&gt;M&lt;/b&gt;" style="text;strokeColor=none;fillColor=none;spacingLeft=4;spacingRight=4;overflow=hidden;rotatable=0;points=[[0,0.5],[1,0.5]];portConstraint=eastwest;fontSize=12;whiteSpace=wrap;html=1;" parent="1" vertex="1">
          <mxGeometry x="635" y="350" width="40" height="30" as="geometry" />
        </mxCell>
        <mxCell id="IfihVc9j7GQSFvolxZwZ-82" value="&lt;b&gt;M&lt;/b&gt;" style="text;strokeColor=none;fillColor=none;spacingLeft=4;spacingRight=4;overflow=hidden;rotatable=0;points=[[0,0.5],[1,0.5]];portConstraint=eastwest;fontSize=12;whiteSpace=wrap;html=1;" parent="1" vertex="1">
          <mxGeometry x="710" y="360" width="40" height="30" as="geometry" />
        </mxCell>
        <mxCell id="IfihVc9j7GQSFvolxZwZ-83" value="&lt;b&gt;M&lt;/b&gt;" style="text;strokeColor=none;fillColor=none;spacingLeft=4;spacingRight=4;overflow=hidden;rotatable=0;points=[[0,0.5],[1,0.5]];portConstraint=eastwest;fontSize=12;whiteSpace=wrap;html=1;" parent="1" vertex="1">
          <mxGeometry x="990" y="360" width="40" height="30" as="geometry" />
        </mxCell>
        <mxCell id="IfihVc9j7GQSFvolxZwZ-84" value="&lt;b&gt;1&lt;/b&gt;" style="text;strokeColor=none;fillColor=none;spacingLeft=4;spacingRight=4;overflow=hidden;rotatable=0;points=[[0,0.5],[1,0.5]];portConstraint=eastwest;fontSize=12;whiteSpace=wrap;html=1;" parent="1" vertex="1">
          <mxGeometry x="240" y="230" width="40" height="30" as="geometry" />
        </mxCell>
        <mxCell id="IfihVc9j7GQSFvolxZwZ-85" value="&lt;b&gt;M&lt;/b&gt;" style="text;strokeColor=none;fillColor=none;spacingLeft=4;spacingRight=4;overflow=hidden;rotatable=0;points=[[0,0.5],[1,0.5]];portConstraint=eastwest;fontSize=12;whiteSpace=wrap;html=1;" parent="1" vertex="1">
          <mxGeometry x="570" y="360" width="40" height="30" as="geometry" />
        </mxCell>
        <mxCell id="avugol_pnEoLDLzUODd4-1" value="dosage" style="ellipse;whiteSpace=wrap;html=1;align=center;" vertex="1" parent="1">
          <mxGeometry x="820" y="290" width="70" height="30" as="geometry" />
        </mxCell>
        <mxCell id="avugol_pnEoLDLzUODd4-2" value="" style="endArrow=none;html=1;rounded=0;entryX=0.5;entryY=1;entryDx=0;entryDy=0;exitX=0.5;exitY=0;exitDx=0;exitDy=0;" edge="1" parent="1" source="IfihVc9j7GQSFvolxZwZ-36" target="avugol_pnEoLDLzUODd4-1">
          <mxGeometry relative="1" as="geometry">
            <mxPoint x="740" y="350" as="sourcePoint" />
            <mxPoint x="900" y="350" as="targetPoint" />
          </mxGeometry>
        </mxCell>
      </root>
    </mxGraphModel>
  </diagram>
</mxfile>
